{
    "asset" : {
        "generator" : "Khronos glTF Blender I/O v1.6.16",
        "version" : "2.0"
    },
    "scene" : 0,
    "scenes" : [
        {
            "name" : "Scene",
            "nodes" : [
                0
            ]
        }
    ],
    "nodes" : [
        {
            "mesh" : 0,
            "name" : "Chocofur_Free_13_Light"
        }
    ],
    "materials" : [
        {
            "doubleSided" : true,
            "name" : "Chocofur_Free_13_Light.002",
            "pbrMetallicRoughness" : {
                "baseColorFactor" : [
                    0,
                    0,
                    0,
                    1
                ],
                "metallicFactor" : 0,
                "roughnessFactor" : 0.15000000596046448
            }
        },
        {
            "doubleSided" : true,
            "name" : "Chocofur_Free_13_Light",
            "pbrMetallicRoughness" : {
                "baseColorFactor" : [
                    0.6000000238418579,
                    0.05999999865889549,
                    0.2964000105857849,
                    1
                ],
                "metallicFactor" : 0,
                "roughnessFactor" : 0.3499999940395355
            }
        },
        {
            "doubleSided" : true,
            "emissiveFactor" : [
                1,
                1,
                1
            ],
            "name" : "Chocofur_Free_13_Light.001",
            "pbrMetallicRoughness" : {}
        }
    ],
    "meshes" : [
        {
            "name" : "Chocofur_Free_13_Light",
            "primitives" : [
                {
                    "attributes" : {
                        "POSITION" : 0,
                        "NORMAL" : 1,
                        "TEXCOORD_0" : 2
                    },
                    "indices" : 3,
                    "material" : 0
                },
                {
                    "attributes" : {
                        "POSITION" : 4,
                        "NORMAL" : 5,
                        "TEXCOORD_0" : 6
                    },
                    "indices" : 7,
                    "material" : 1
                },
                {
                    "attributes" : {
                        "POSITION" : 8,
                        "NORMAL" : 9,
                        "TEXCOORD_0" : 10
                    },
                    "indices" : 11,
                    "material" : 2
                }
            ]
        }
    ],
    "accessors" : [
        {
            "bufferView" : 0,
            "componentType" : 5126,
            "count" : 6747,
            "max" : [
                0.15410801768302917,
                0.4356920123100281,
                0.10459687560796738
            ],
            "min" : [
                -0.10437403619289398,
                -2.376813057480831e-08,
                -0.11410995572805405
            ],
            "type" : "VEC3"
        },
        {
            "bufferView" : 1,
            "componentType" : 5126,
            "count" : 6747,
            "type" : "VEC3"
        },
        {
            "bufferView" : 2,
            "componentType" : 5126,
            "count" : 6747,
            "type" : "VEC2"
        },
        {
            "bufferView" : 3,
            "componentType" : 5123,
            "count" : 33660,
            "type" : "SCALAR"
        },
        {
            "bufferView" : 4,
            "componentType" : 5126,
            "count" : 631,
            "max" : [
                0.1220053881406784,
                0.3851412534713745,
                0.02799542061984539
            ],
            "min" : [
                0.0515081025660038,
                0.18730215728282928,
                0.007752871606498957
            ],
            "type" : "VEC3"
        },
        {
            "bufferView" : 5,
            "componentType" : 5126,
            "count" : 631,
            "type" : "VEC3"
        },
        {
            "bufferView" : 6,
            "componentType" : 5126,
            "count" : 631,
            "type" : "VEC2"
        },
        {
            "bufferView" : 7,
            "componentType" : 5123,
            "count" : 2616,
            "type" : "SCALAR"
        },
        {
            "bufferView" : 8,
            "componentType" : 5126,
            "count" : 300,
            "max" : [
                0.1124991700053215,
                0.3984624743461609,
                0.009945464320480824
            ],
            "min" : [
                0.08765723556280136,
                0.3746238350868225,
                -0.010098929516971111
            ],
            "type" : "VEC3"
        },
        {
            "bufferView" : 9,
            "componentType" : 5126,
            "count" : 300,
            "type" : "VEC3"
        },
        {
            "bufferView" : 10,
            "componentType" : 5126,
            "count" : 300,
            "type" : "VEC2"
        },
        {
            "bufferView" : 11,
            "componentType" : 5123,
            "count" : 1368,
            "type" : "SCALAR"
        }
    ],
    "bufferViews" : [
        {
            "buffer" : 0,
            "byteLength" : 80964,
            "byteOffset" : 0
        },
        {
            "buffer" : 0,
            "byteLength" : 80964,
            "byteOffset" : 80964
        },
        {
            "buffer" : 0,
            "byteLength" : 53976,
            "byteOffset" : 161928
        },
        {
            "buffer" : 0,
            "byteLength" : 67320,
            "byteOffset" : 215904
        },
        {
            "buffer" : 0,
            "byteLength" : 7572,
            "byteOffset" : 283224
        },
        {
            "buffer" : 0,
            "byteLength" : 7572,
            "byteOffset" : 290796
        },
        {
            "buffer" : 0,
            "byteLength" : 5048,
            "byteOffset" : 298368
        },
        {
            "buffer" : 0,
            "byteLength" : 5232,
            "byteOffset" : 303416
        },
        {
            "buffer" : 0,
            "byteLength" : 3600,
            "byteOffset" : 308648
        },
        {
            "buffer" : 0,
            "byteLength" : 3600,
            "byteOffset" : 312248
        },
        {
            "buffer" : 0,
            "byteLength" : 2400,
            "byteOffset" : 315848
        },
        {
            "buffer" : 0,
            "byteLength" : 2736,
            "byteOffset" : 318248
        }
    ],
    "buffers" : [
        {
            "byteLength" : 320984,
            "uri" : "data:application/octet-stream;base64,"
        }
    ]
}
