{
    "asset" : {
        "generator" : "Khronos glTF Blender I/O v1.6.16",
        "version" : "2.0"
    },
    "scene" : 0,
    "scenes" : [
        {
            "name" : "Scene",
            "nodes" : [
                1
            ]
        }
    ],
    "nodes" : [
        {
            "mesh" : 0,
            "name" : "Chocofur_Free_Details_41.001",
            "translation" : [
                0.0005311981658451259,
                -0.00449239369481802,
                -0.001853955676779151
            ]
        },
        {
            "children" : [
                0
            ],
            "mesh" : 1,
            "name" : "Chocofur_Free_Details_41",
            "scale" : [
                2,
                2,
                2
            ],
            "translation" : [
                -0.000898843165487051,
                0.004342461004853249,
                0.0008952468633651733
            ]
        }
    ],
    "materials" : [
        {
            "doubleSided" : true,
            "name" : "Chocofur_Free_Details_41",
            "pbrMetallicRoughness" : {}
        },
        {
            "doubleSided" : true,
            "name" : "Zebra_Rug_Texture",
            "pbrMetallicRoughness" : {
                "baseColorTexture" : {
                    "index" : 0
                },
                "metallicFactor" : 0,
                "roughnessFactor" : 0
            }
        }
    ],
    "meshes" : [
        {
            "name" : "Chocofur_Free_Details_41.001",
            "primitives" : [
                {
                    "attributes" : {
                        "POSITION" : 0,
                        "NORMAL" : 1
                    },
                    "indices" : 2,
                    "material" : 0
                }
            ]
        },
        {
            "name" : "Chocofur_Free_Details_41",
            "primitives" : [
                {
                    "attributes" : {
                        "POSITION" : 3,
                        "NORMAL" : 4,
                        "TEXCOORD_0" : 5
                    },
                    "indices" : 6,
                    "material" : 1
                }
            ]
        }
    ],
    "textures" : [
        {
            "sampler" : 0,
            "source" : 0
        }
    ],
    "images" : [
        {
            "bufferView" : 7,
            "mimeType" : "image/png",
            "name" : "rug-diffuse"
        }
    ],
    "accessors" : [
        {
            "bufferView" : 0,
            "componentType" : 5126,
            "count" : 54,
            "max" : [
                0.0003415997780393809,
                0.0021767958533018827,
                0.0014353657606989145
            ],
            "min" : [
                -0.0018173385178670287,
                -0.0006975635769777,
                -0.0014725493965670466
            ],
            "type" : "VEC3"
        },
        {
            "bufferView" : 1,
            "componentType" : 5126,
            "count" : 54,
            "type" : "VEC3"
        },
        {
            "bufferView" : 2,
            "componentType" : 5123,
            "count" : 252,
            "type" : "SCALAR"
        },
        {
            "bufferView" : 3,
            "componentType" : 5126,
            "count" : 1466,
            "max" : [
                0.6088064908981323,
                0.00613951962441206,
                0.3939637243747711
            ],
            "min" : [
                -0.59908127784729,
                -0.0017093201167881489,
                -0.41407543420791626
            ],
            "type" : "VEC3"
        },
        {
            "bufferView" : 4,
            "componentType" : 5126,
            "count" : 1466,
            "type" : "VEC3"
        },
        {
            "bufferView" : 5,
            "componentType" : 5126,
            "count" : 1466,
            "type" : "VEC2"
        },
        {
            "bufferView" : 6,
            "componentType" : 5123,
            "count" : 6990,
            "type" : "SCALAR"
        }
    ],
    "bufferViews" : [
        {
            "buffer" : 0,
            "byteLength" : 648,
            "byteOffset" : 0
        },
        {
            "buffer" : 0,
            "byteLength" : 648,
            "byteOffset" : 648
        },
        {
            "buffer" : 0,
            "byteLength" : 504,
            "byteOffset" : 1296
        },
        {
            "buffer" : 0,
            "byteLength" : 17592,
            "byteOffset" : 1800
        },
        {
            "buffer" : 0,
            "byteLength" : 17592,
            "byteOffset" : 19392
        },
        {
            "buffer" : 0,
            "byteLength" : 11728,
            "byteOffset" : 36984
        },
        {
            "buffer" : 0,
            "byteLength" : 13980,
            "byteOffset" : 48712
        },
        {
            "buffer" : 0,
            "byteLength" : 172728,
            "byteOffset" : 62692
        }
    ],
    "samplers" : [
        {
            "magFilter" : 9729,
            "minFilter" : 9987
        }
    ],
    "buffers" : [
        {
            "byteLength" : 235420,
            "uri" : "data:application/octet-stream;base64,"
        }
    ]
}
