{
    "asset" : {
        "generator" : "Khronos glTF Blender I/O v1.6.16",
        "version" : "2.0"
    },
    "scene" : 0,
    "scenes" : [
        {
            "name" : "Scene",
            "nodes" : [
                0
            ]
        }
    ],
    "nodes" : [
        {
            "mesh" : 0,
            "name" : "Chocofur_Free_Table_03"
        }
    ],
    "materials" : [
        {
            "doubleSided" : true,
            "name" : "Chocofur_Free_Table_03",
            "pbrMetallicRoughness" : {
                "baseColorFactor" : [
                    1,
                    0.3840441405773163,
                    0,
                    1
                ],
                "metallicFactor" : 0,
                "metallicRoughnessTexture" : {
                    "index" : 0
                }
            }
        }
    ],
    "meshes" : [
        {
            "name" : "Chocofur_Free_Table_03",
            "primitives" : [
                {
                    "attributes" : {
                        "POSITION" : 0,
                        "NORMAL" : 1,
                        "TEXCOORD_0" : 2
                    },
                    "indices" : 3,
                    "material" : 0
                }
            ]
        }
    ],
    "textures" : [
        {
            "sampler" : 0,
            "source" : 0
        }
    ],
    "images" : [
        {
            "bufferView" : 4,
            "mimeType" : "image/png",
            "name" : "color-roughness"
        }
    ],
    "accessors" : [
        {
            "bufferView" : 0,
            "componentType" : 5126,
            "count" : 1666,
            "max" : [
                0.2995195686817169,
                0.7397104501724243,
                0.29961535334587097
            ],
            "min" : [
                -0.2997112572193146,
                -2.94647179543972e-07,
                -0.2996154725551605
            ],
            "type" : "VEC3"
        },
        {
            "bufferView" : 1,
            "componentType" : 5126,
            "count" : 1666,
            "type" : "VEC3"
        },
        {
            "bufferView" : 2,
            "componentType" : 5126,
            "count" : 1666,
            "type" : "VEC2"
        },
        {
            "bufferView" : 3,
            "componentType" : 5123,
            "count" : 8994,
            "type" : "SCALAR"
        }
    ],
    "bufferViews" : [
        {
            "buffer" : 0,
            "byteLength" : 19992,
            "byteOffset" : 0
        },
        {
            "buffer" : 0,
            "byteLength" : 19992,
            "byteOffset" : 19992
        },
        {
            "buffer" : 0,
            "byteLength" : 13328,
            "byteOffset" : 39984
        },
        {
            "buffer" : 0,
            "byteLength" : 17988,
            "byteOffset" : 53312
        },
        {
            "buffer" : 0,
            "byteLength" : 1561540,
            "byteOffset" : 71300
        }
    ],
    "samplers" : [
        {
            "magFilter" : 9729,
            "minFilter" : 9987
        }
    ],
    "buffers" : [
        {
            "byteLength" : 1632840,
            "uri" : "data:application/octet-stream;base64,"
        }
    ]
}
