{
    "asset" : {
        "generator" : "Khronos glTF Blender I/O v1.6.16",
        "version" : "2.0"
    },
    "scene" : 0,
    "scenes" : [
        {
            "name" : "Scene",
            "nodes" : [
                0
            ]
        }
    ],
    "nodes" : [
        {
            "mesh" : 0,
            "name" : "Esfera UV"
        }
    ],
    "meshes" : [
        {
            "name" : "Esfera UV",
            "primitives" : [
                {
                    "attributes" : {
                        "POSITION" : 0,
                        "NORMAL" : 1,
                        "TEXCOORD_0" : 2
                    },
                    "indices" : 3
                }
            ]
        }
    ],
    "accessors" : [
        {
            "bufferView" : 0,
            "componentType" : 5126,
            "count" : 736,
            "max" : [
                46.193965911865234,
                50,
                46.19396209716797
            ],
            "min" : [
                -46.19396209716797,
                19.134170532226562,
                -46.19397735595703
            ],
            "type" : "VEC3"
        },
        {
            "bufferView" : 1,
            "componentType" : 5126,
            "count" : 736,
            "type" : "VEC3"
        },
        {
            "bufferView" : 2,
            "componentType" : 5126,
            "count" : 736,
            "type" : "VEC2"
        },
        {
            "bufferView" : 3,
            "componentType" : 5123,
            "count" : 1056,
            "type" : "SCALAR"
        }
    ],
    "bufferViews" : [
        {
            "buffer" : 0,
            "byteLength" : 8832,
            "byteOffset" : 0
        },
        {
            "buffer" : 0,
            "byteLength" : 8832,
            "byteOffset" : 8832
        },
        {
            "buffer" : 0,
            "byteLength" : 5888,
            "byteOffset" : 17664
        },
        {
            "buffer" : 0,
            "byteLength" : 2112,
            "byteOffset" : 23552
        }
    ],
    "buffers" : [
        {
            "byteLength" : 25664,
            "uri" : "data:application/octet-stream;base64,"
        }
    ]
}
